<mxfile host="app.diagrams.net" modified="2023-10-04T18:18:25.116Z" agent="Mozilla/5.0 (Windows NT 10.0; Win64; x64) AppleWebKit/537.36 (KHTML, like Gecko) Chrome/117.0.0.0 Safari/537.36" etag="uMKM_n08_JM53rC7fXjW" version="22.0.0" type="google">
  <diagram name="Page-1" id="9f46799a-70d6-7492-0946-bef42562c5a5">
    <mxGraphModel grid="0" page="1" gridSize="10" guides="1" tooltips="1" connect="1" arrows="1" fold="1" pageScale="1" pageWidth="1100" pageHeight="850" background="none" math="0" shadow="0">
      <root>
        <mxCell id="0" />
        <mxCell id="1" parent="0" />
        <mxCell id="ZWZ4TqS6q02lusVHSzw_-1" value="&amp;lt;&amp;lt;Настільний комп&#39;ютер&amp;gt;&amp;gt;" style="verticalAlign=top;align=center;spacingTop=8;spacingLeft=2;spacingRight=12;shape=cube;size=10;direction=south;fontStyle=4;html=1;" vertex="1" parent="1">
          <mxGeometry x="70" y="140" width="230" height="250" as="geometry" />
        </mxCell>
        <mxCell id="ZWZ4TqS6q02lusVHSzw_-2" value="&amp;lt;&amp;lt;OC Windows, OC Linux&amp;gt;&amp;gt;" style="verticalAlign=top;align=center;spacingTop=8;spacingLeft=2;spacingRight=12;shape=cube;size=10;direction=south;fontStyle=4;html=1;" vertex="1" parent="1">
          <mxGeometry x="95" y="190" width="180" height="180" as="geometry" />
        </mxCell>
        <mxCell id="ZWZ4TqS6q02lusVHSzw_-3" value="*.js&#xa;(Angular)" style="shape=module;align=left;spacingLeft=20;align=center;verticalAlign=top;" vertex="1" parent="1">
          <mxGeometry x="135" y="255" width="100" height="50" as="geometry" />
        </mxCell>
        <mxCell id="ZWZ4TqS6q02lusVHSzw_-7" value="" style="ellipse;whiteSpace=wrap;html=1;aspect=fixed;" vertex="1" parent="1">
          <mxGeometry x="95" y="425" width="40" height="40" as="geometry" />
        </mxCell>
        <mxCell id="ZWZ4TqS6q02lusVHSzw_-8" value="Маніпулятор &quot;Миша&quot;" style="text;html=1;strokeColor=none;fillColor=none;align=center;verticalAlign=middle;whiteSpace=wrap;rounded=0;" vertex="1" parent="1">
          <mxGeometry x="90" y="470" width="60" height="30" as="geometry" />
        </mxCell>
        <mxCell id="ZWZ4TqS6q02lusVHSzw_-9" value="" style="endArrow=none;html=1;rounded=0;exitX=1.014;exitY=0.802;exitDx=0;exitDy=0;exitPerimeter=0;entryX=0.5;entryY=0;entryDx=0;entryDy=0;" edge="1" parent="1" source="ZWZ4TqS6q02lusVHSzw_-1" target="ZWZ4TqS6q02lusVHSzw_-7">
          <mxGeometry width="50" height="50" relative="1" as="geometry">
            <mxPoint x="570" y="360" as="sourcePoint" />
            <mxPoint x="620" y="310" as="targetPoint" />
          </mxGeometry>
        </mxCell>
        <mxCell id="ZWZ4TqS6q02lusVHSzw_-10" value="" style="ellipse;whiteSpace=wrap;html=1;aspect=fixed;" vertex="1" parent="1">
          <mxGeometry x="220" y="425" width="40" height="40" as="geometry" />
        </mxCell>
        <mxCell id="ZWZ4TqS6q02lusVHSzw_-11" value="" style="endArrow=none;html=1;rounded=0;exitX=1.014;exitY=0.802;exitDx=0;exitDy=0;exitPerimeter=0;entryX=0.5;entryY=0;entryDx=0;entryDy=0;" edge="1" parent="1" target="ZWZ4TqS6q02lusVHSzw_-10">
          <mxGeometry width="50" height="50" relative="1" as="geometry">
            <mxPoint x="240.53999999999996" y="393.4999999999998" as="sourcePoint" />
            <mxPoint x="745" y="310" as="targetPoint" />
          </mxGeometry>
        </mxCell>
        <mxCell id="ZWZ4TqS6q02lusVHSzw_-12" value="Клавіатура" style="text;html=1;strokeColor=none;fillColor=none;align=center;verticalAlign=middle;whiteSpace=wrap;rounded=0;" vertex="1" parent="1">
          <mxGeometry x="210" y="470" width="60" height="30" as="geometry" />
        </mxCell>
        <mxCell id="ZWZ4TqS6q02lusVHSzw_-13" value="&amp;lt;&amp;lt;Сервер 1&amp;gt;&amp;gt;" style="verticalAlign=top;align=center;spacingTop=8;spacingLeft=2;spacingRight=12;shape=cube;size=10;direction=south;fontStyle=4;html=1;" vertex="1" parent="1">
          <mxGeometry x="410" y="140" width="230" height="250" as="geometry" />
        </mxCell>
        <mxCell id="ZWZ4TqS6q02lusVHSzw_-14" value="&amp;lt;&amp;lt;ОS Linux&amp;gt;&amp;gt;" style="verticalAlign=top;align=center;spacingTop=8;spacingLeft=2;spacingRight=12;shape=cube;size=10;direction=south;fontStyle=4;html=1;" vertex="1" parent="1">
          <mxGeometry x="435" y="190" width="180" height="180" as="geometry" />
        </mxCell>
        <mxCell id="ZWZ4TqS6q02lusVHSzw_-22" value="&amp;lt;&amp;lt;Application Server &lt;br&gt;Apache Tomcat&amp;gt;&amp;gt;" style="verticalAlign=top;align=center;spacingTop=8;spacingLeft=2;spacingRight=12;shape=cube;size=10;direction=south;fontStyle=4;html=1;" vertex="1" parent="1">
          <mxGeometry x="450" y="225" width="150" height="125" as="geometry" />
        </mxCell>
        <mxCell id="ZWZ4TqS6q02lusVHSzw_-23" value="*.jar" style="shape=module;align=left;spacingLeft=20;align=center;verticalAlign=top;" vertex="1" parent="1">
          <mxGeometry x="475" y="285" width="100" height="50" as="geometry" />
        </mxCell>
        <mxCell id="ZWZ4TqS6q02lusVHSzw_-24" value="&amp;lt;&amp;lt; Сервер 3&amp;gt;&amp;gt;" style="verticalAlign=top;align=center;spacingTop=8;spacingLeft=2;spacingRight=12;shape=cube;size=10;direction=south;fontStyle=4;html=1;" vertex="1" parent="1">
          <mxGeometry x="750" y="140" width="230" height="250" as="geometry" />
        </mxCell>
        <mxCell id="ZWZ4TqS6q02lusVHSzw_-25" value="&amp;lt;&amp;lt;ОS Linux&amp;gt;&amp;gt;" style="verticalAlign=top;align=center;spacingTop=8;spacingLeft=2;spacingRight=12;shape=cube;size=10;direction=south;fontStyle=4;html=1;" vertex="1" parent="1">
          <mxGeometry x="775" y="190" width="180" height="180" as="geometry" />
        </mxCell>
        <mxCell id="ZWZ4TqS6q02lusVHSzw_-26" value="&amp;lt;&amp;lt;Database Server&lt;br&gt;PosgreSQL&amp;gt;&amp;gt;" style="verticalAlign=top;align=center;spacingTop=8;spacingLeft=2;spacingRight=12;shape=cube;size=10;direction=south;fontStyle=4;html=1;" vertex="1" parent="1">
          <mxGeometry x="790" y="225" width="150" height="125" as="geometry" />
        </mxCell>
        <mxCell id="ZWZ4TqS6q02lusVHSzw_-30" value="" style="endArrow=none;html=1;rounded=0;exitX=0.528;exitY=-0.008;exitDx=0;exitDy=0;exitPerimeter=0;entryX=0;entryY=0;entryDx=130;entryDy=230;entryPerimeter=0;" edge="1" parent="1" source="ZWZ4TqS6q02lusVHSzw_-1" target="ZWZ4TqS6q02lusVHSzw_-13">
          <mxGeometry width="50" height="50" relative="1" as="geometry">
            <mxPoint x="570" y="360" as="sourcePoint" />
            <mxPoint x="620" y="310" as="targetPoint" />
          </mxGeometry>
        </mxCell>
        <mxCell id="ZWZ4TqS6q02lusVHSzw_-31" value="" style="endArrow=none;html=1;rounded=0;exitX=0.528;exitY=-0.008;exitDx=0;exitDy=0;exitPerimeter=0;entryX=0;entryY=0;entryDx=130;entryDy=230;entryPerimeter=0;" edge="1" parent="1" target="ZWZ4TqS6q02lusVHSzw_-24">
          <mxGeometry width="50" height="50" relative="1" as="geometry">
            <mxPoint x="640" y="266" as="sourcePoint" />
            <mxPoint x="748.1599999999999" y="264" as="targetPoint" />
          </mxGeometry>
        </mxCell>
        <mxCell id="ZWZ4TqS6q02lusVHSzw_-32" value="" style="endArrow=none;dashed=1;html=1;dashPattern=1 3;strokeWidth=2;rounded=0;" edge="1" parent="1">
          <mxGeometry width="50" height="50" relative="1" as="geometry">
            <mxPoint x="360" y="560" as="sourcePoint" />
            <mxPoint x="360" y="40" as="targetPoint" />
          </mxGeometry>
        </mxCell>
        <mxCell id="ZWZ4TqS6q02lusVHSzw_-33" value="" style="endArrow=none;dashed=1;html=1;dashPattern=1 3;strokeWidth=2;rounded=0;" edge="1" parent="1">
          <mxGeometry width="50" height="50" relative="1" as="geometry">
            <mxPoint x="699.9999999999998" y="560" as="sourcePoint" />
            <mxPoint x="699.9999999999998" y="39.999999999999886" as="targetPoint" />
          </mxGeometry>
        </mxCell>
        <mxCell id="MynK0w4rp5XDJf8qdPJU-2" value="" style="strokeWidth=2;html=1;shape=mxgraph.flowchart.database;whiteSpace=wrap;" vertex="1" parent="1">
          <mxGeometry x="822.5" y="280" width="85" height="60" as="geometry" />
        </mxCell>
        <mxCell id="ZWZ4TqS6q02lusVHSzw_-29" value="Relation&lt;br&gt;Database" style="text;html=1;strokeColor=none;fillColor=none;align=center;verticalAlign=middle;whiteSpace=wrap;rounded=0;" vertex="1" parent="1">
          <mxGeometry x="835" y="305" width="60" height="30" as="geometry" />
        </mxCell>
      </root>
    </mxGraphModel>
  </diagram>
</mxfile>
